{
  "accessors": [
    {
      "bufferView": 0,
      "componentType": 5126,
      "count": 1189,
      "type": "VEC3",
      "max": [
        0.24339506030082703,
        0.82640105485916138,
        0.24339500069618225
      ],
      "min": [
        -0.24339509010314941,
        -7.2329178202323874E-09,
        -0.24339507520198822
      ]
    },
    {
      "bufferView": 1,
      "componentType": 5126,
      "count": 1189,
      "type": "VEC3",
      "max": [
        1.0,
        1.0,
        1.0
      ],
      "min": [
        -1.0,
        -1.0,
        -1.0
      ]
    },
    {
      "bufferView": 2,
      "componentType": 5126,
      "count": 1189,
      "type": "VEC4",
      "max": [
        1.0,
        0.9999845027923584,
        1.0,
        -1.0
      ],
      "min": [
        -1.0,
        -0.99437594413757324,
        -1.0,
        -1.0
      ]
    },
    {
      "bufferView": 3,
      "componentType": 5126,
      "count": 1189,
      "type": "VEC2",
      "max": [
        0.9891209602355957,
        0.97872716188430786
      ],
      "min": [
        0.010914396494626999,
        0.0057757659815251827
      ]
    },
    {
      "bufferView": 4,
      "componentType": 5125,
      "count": 4032,
      "type": "SCALAR",
      "max": [
        1188.0
      ],
      "min": [
        0.0
      ]
    },
    {
      "bufferView": 5,
      "componentType": 5126,
      "count": 272,
      "type": "VEC3",
      "max": [
        0.079809233546257019,
        1.1000003814697266,
        0.22713640332221985
      ],
      "min": [
        -0.079808458685874939,
        0.0,
        -0.22713607549667358
      ]
    },
    {
      "bufferView": 6,
      "componentType": 5126,
      "count": 272,
      "type": "VEC3",
      "max": [
        1.0,
        1.0,
        1.0
      ],
      "min": [
        -1.0,
        -1.0,
        -1.0
      ]
    },
    {
      "bufferView": 7,
      "componentType": 5126,
      "count": 272,
      "type": "VEC4",
      "max": [
        1.0,
        1.0,
        1.0,
        -1.0
      ],
      "min": [
        -1.0,
        -1.0,
        -0.0011613952228799462,
        -1.0
      ]
    },
    {
      "bufferView": 8,
      "componentType": 5126,
      "count": 272,
      "type": "VEC2",
      "max": [
        0.98860549926757813,
        0.73506659269332886
      ],
      "min": [
        0.017881406471133232,
        0.017176665365695953
      ]
    },
    {
      "bufferView": 9,
      "componentType": 5125,
      "count": 612,
      "type": "SCALAR",
      "max": [
        271.0
      ],
      "min": [
        0.0
      ]
    },
    {
      "bufferView": 10,
      "componentType": 5126,
      "count": 879,
      "type": "VEC3",
      "max": [
        0.66363567113876343,
        1.1000010967254639,
        0.50537502765655518
      ],
      "min": [
        -0.49999594688415527,
        3.8146971803598717E-08,
        -0.5053750872612
      ]
    },
    {
      "bufferView": 11,
      "componentType": 5126,
      "count": 879,
      "type": "VEC3",
      "max": [
        1.0,
        1.0,
        1.0
      ],
      "min": [
        -1.0,
        -1.0,
        -1.0
      ]
    },
    {
      "bufferView": 12,
      "componentType": 5126,
      "count": 879,
      "type": "VEC4",
      "max": [
        1.0,
        1.0,
        1.0,
        1.0
      ],
      "min": [
        -1.0,
        -1.0,
        -1.0,
        -1.0
      ]
    },
    {
      "bufferView": 13,
      "componentType": 5126,
      "count": 879,
      "type": "VEC2",
      "max": [
        0.99469292163848877,
        0.99552488327026367
      ],
      "min": [
        0.0096264369785785675,
        0.01776476576924324
      ]
    },
    {
      "bufferView": 14,
      "componentType": 5125,
      "count": 1767,
      "type": "SCALAR",
      "max": [
        878.0
      ],
      "min": [
        0.0
      ]
    },
    {
      "bufferView": 15,
      "componentType": 5126,
      "count": 272,
      "type": "VEC3",
      "max": [
        0.079808458685874939,
        1.1000003814697266,
        0.22713650763034821
      ],
      "min": [
        -0.079809233546257019,
        3.8146971803598717E-08,
        -0.22713595628738403
      ]
    },
    {
      "bufferView": 16,
      "componentType": 5126,
      "count": 272,
      "type": "VEC3",
      "max": [
        1.0,
        1.0,
        1.0
      ],
      "min": [
        -1.0,
        -1.0,
        -1.0
      ]
    },
    {
      "bufferView": 17,
      "componentType": 5126,
      "count": 272,
      "type": "VEC4",
      "max": [
        1.0,
        1.0,
        1.0,
        1.0
      ],
      "min": [
        -1.0,
        -1.0,
        -0.001166288391686976,
        1.0
      ]
    },
    {
      "bufferView": 18,
      "componentType": 5126,
      "count": 272,
      "type": "VEC2",
      "max": [
        0.98860549926757813,
        0.73506659269332886
      ],
      "min": [
        0.017881406471133232,
        0.017176665365695953
      ]
    },
    {
      "bufferView": 19,
      "componentType": 5125,
      "count": 612,
      "type": "SCALAR",
      "max": [
        271.0
      ],
      "min": [
        0.0
      ]
    },
    {
      "bufferView": 20,
      "componentType": 5126,
      "count": 923,
      "type": "VEC3",
      "max": [
        0.49999624490737915,
        1.1000010967254639,
        0.50537502765655518
      ],
      "min": [
        -0.49999594688415527,
        3.8146971803598717E-08,
        -0.50537502765655518
      ]
    },
    {
      "bufferView": 21,
      "componentType": 5126,
      "count": 923,
      "type": "VEC3",
      "max": [
        1.0,
        1.0,
        1.0
      ],
      "min": [
        -1.0,
        -1.0,
        -1.0
      ]
    },
    {
      "bufferView": 22,
      "componentType": 5126,
      "count": 923,
      "type": "VEC2",
      "max": [
        0.99469292163848877,
        0.99371302127838135
      ],
      "min": [
        0.0062777139246463776,
        0.00520766107365489
      ]
    },
    {
      "bufferView": 23,
      "componentType": 5125,
      "count": 1875,
      "type": "SCALAR",
      "max": [
        922.0
      ],
      "min": [
        0.0
      ]
    },
    {
      "bufferView": 24,
      "componentType": 5126,
      "count": 888,
      "type": "VEC3",
      "max": [
        0.49999567866325378,
        1.1000010967254639,
        0.50537514686584473
      ],
      "min": [
        -0.66363608837127686,
        3.8146971803598717E-08,
        -0.50537502765655518
      ]
    },
    {
      "bufferView": 25,
      "componentType": 5126,
      "count": 888,
      "type": "VEC3",
      "max": [
        1.0,
        1.0,
        1.0
      ],
      "min": [
        -1.0,
        -1.0,
        -1.0
      ]
    },
    {
      "bufferView": 26,
      "componentType": 5126,
      "count": 888,
      "type": "VEC4",
      "max": [
        1.0,
        1.0,
        1.0,
        1.0
      ],
      "min": [
        -1.0,
        -1.0,
        -1.0,
        -1.0
      ]
    },
    {
      "bufferView": 27,
      "componentType": 5126,
      "count": 888,
      "type": "VEC2",
      "max": [
        0.99469292163848877,
        0.99552488327026367
      ],
      "min": [
        0.0096264369785785675,
        0.01776476576924324
      ]
    },
    {
      "bufferView": 28,
      "componentType": 5125,
      "count": 1767,
      "type": "SCALAR",
      "max": [
        887.0
      ],
      "min": [
        0.0
      ]
    },
    {
      "bufferView": 29,
      "componentType": 5126,
      "count": 1359,
      "type": "VEC3",
      "max": [
        0.217498779296875,
        1.104901909828186,
        0.2517167329788208
      ],
      "min": [
        -0.21749895811080933,
        0.0,
        -0.2517167329788208
      ]
    },
    {
      "bufferView": 30,
      "componentType": 5126,
      "count": 1359,
      "type": "VEC3",
      "max": [
        1.0,
        1.0,
        1.0
      ],
      "min": [
        -1.0,
        -1.0,
        -1.0
      ]
    },
    {
      "bufferView": 31,
      "componentType": 5126,
      "count": 1359,
      "type": "VEC4",
      "max": [
        1.0,
        0.999417781829834,
        1.0,
        1.0
      ],
      "min": [
        -1.0,
        -1.0,
        -1.0,
        -1.0
      ]
    },
    {
      "bufferView": 32,
      "componentType": 5126,
      "count": 1359,
      "type": "VEC2",
      "max": [
        0.98774480819702148,
        0.98115164041519165
      ],
      "min": [
        0.015775442123413086,
        0.0164269357919693
      ]
    },
    {
      "bufferView": 33,
      "componentType": 5125,
      "count": 4260,
      "type": "SCALAR",
      "max": [
        1358.0
      ],
      "min": [
        0.0
      ]
    }
  ],
  "asset": {
    "generator": "UnityGLTF (2018.2.9f1)",
    "version": "2.0"
  },
  "buffers": [
    {
      "uri": "Unity2Skfb.bin",
      "byteLength": 322468
    }
  ],
  "bufferViews": [
    {
      "buffer": 0,
      "byteLength": 14268
    },
    {
      "buffer": 0,
      "byteOffset": 14268,
      "byteLength": 14268
    },
    {
      "buffer": 0,
      "byteOffset": 28536,
      "byteLength": 19024
    },
    {
      "buffer": 0,
      "byteOffset": 47560,
      "byteLength": 9512
    },
    {
      "buffer": 0,
      "byteOffset": 57072,
      "byteLength": 16128
    },
    {
      "buffer": 0,
      "byteOffset": 73200,
      "byteLength": 3264
    },
    {
      "buffer": 0,
      "byteOffset": 76464,
      "byteLength": 3264
    },
    {
      "buffer": 0,
      "byteOffset": 79728,
      "byteLength": 4352
    },
    {
      "buffer": 0,
      "byteOffset": 84080,
      "byteLength": 2176
    },
    {
      "buffer": 0,
      "byteOffset": 86256,
      "byteLength": 2448
    },
    {
      "buffer": 0,
      "byteOffset": 88704,
      "byteLength": 10548
    },
    {
      "buffer": 0,
      "byteOffset": 99252,
      "byteLength": 10548
    },
    {
      "buffer": 0,
      "byteOffset": 109800,
      "byteLength": 14064
    },
    {
      "buffer": 0,
      "byteOffset": 123864,
      "byteLength": 7032
    },
    {
      "buffer": 0,
      "byteOffset": 130896,
      "byteLength": 7068
    },
    {
      "buffer": 0,
      "byteOffset": 137964,
      "byteLength": 3264
    },
    {
      "buffer": 0,
      "byteOffset": 141228,
      "byteLength": 3264
    },
    {
      "buffer": 0,
      "byteOffset": 144492,
      "byteLength": 4352
    },
    {
      "buffer": 0,
      "byteOffset": 148844,
      "byteLength": 2176
    },
    {
      "buffer": 0,
      "byteOffset": 151020,
      "byteLength": 2448
    },
    {
      "buffer": 0,
      "byteOffset": 153468,
      "byteLength": 11076
    },
    {
      "buffer": 0,
      "byteOffset": 164544,
      "byteLength": 11076
    },
    {
      "buffer": 0,
      "byteOffset": 175620,
      "byteLength": 7384
    },
    {
      "buffer": 0,
      "byteOffset": 183004,
      "byteLength": 7500
    },
    {
      "buffer": 0,
      "byteOffset": 190504,
      "byteLength": 10656
    },
    {
      "buffer": 0,
      "byteOffset": 201160,
      "byteLength": 10656
    },
    {
      "buffer": 0,
      "byteOffset": 211816,
      "byteLength": 14208
    },
    {
      "buffer": 0,
      "byteOffset": 226024,
      "byteLength": 7104
    },
    {
      "buffer": 0,
      "byteOffset": 233128,
      "byteLength": 7068
    },
    {
      "buffer": 0,
      "byteOffset": 240196,
      "byteLength": 16308
    },
    {
      "buffer": 0,
      "byteOffset": 256504,
      "byteLength": 16308
    },
    {
      "buffer": 0,
      "byteOffset": 272812,
      "byteLength": 21744
    },
    {
      "buffer": 0,
      "byteOffset": 294556,
      "byteLength": 10872
    },
    {
      "buffer": 0,
      "byteOffset": 305428,
      "byteLength": 17040
    }
  ],
  "images": [
    {
      "uri": "572610_re_ho_02_N.png",
      "name": "re_ho_02_N"
    },
    {
      "uri": "11874_re_ho_02_alb.jpg",
      "name": "re_ho_02_alb"
    },
    {
      "uri": "572614_re_ho_02_met.png",
      "name": "re_ho_02_met"
    },
    {
      "uri": "572618_re_bar_end_N.png",
      "name": "re_bar_end_N"
    },
    {
      "uri": "11936_re_bar_end_alb.jpg",
      "name": "re_bar_end_alb"
    },
    {
      "uri": "572622_re_bar_end_met.png",
      "name": "re_bar_end_met"
    },
    {
      "uri": "572624_re_bar_side_N.png",
      "name": "re_bar_side_N"
    },
    {
      "uri": "10810_re_bar_side_alb.jpg",
      "name": "re_bar_side_alb"
    },
    {
      "uri": "572628_re_bar_side_met.png",
      "name": "re_bar_side_met"
    },
    {
      "uri": "572630_re_bar_center_N.png",
      "name": "re_bar_center_N"
    },
    {
      "uri": "11594_re_bar_center_alb.jpg",
      "name": "re_bar_center_alb"
    },
    {
      "uri": "572634_re_bar_center_met.png",
      "name": "re_bar_center_met"
    },
    {
      "uri": "572636_re_ho_01_N.png",
      "name": "re_ho_01_N"
    },
    {
      "uri": "10778_re_ho_01_alb.jpg",
      "name": "re_ho_01_alb"
    },
    {
      "uri": "572640_re_ho_01_met.png",
      "name": "re_ho_01_met"
    }
  ],
  "materials": [
    {
      "pbrMetallicRoughness": {
        "baseColorTexture": {
          "index": 1
        },
        "metallicFactor": 0.0,
        "roughnessFactor": 0.5,
        "metallicRoughnessTexture": {
          "index": 2
        }
      },
      "normalTexture": {
        "index": 0
      },
      "occlusionTexture": {
        "index": 2
      },
      "name": "re_ho_02"
    },
    {
      "pbrMetallicRoughness": {
        "baseColorTexture": {
          "index": 4
        },
        "metallicFactor": 0.0,
        "roughnessFactor": 0.5,
        "metallicRoughnessTexture": {
          "index": 5
        }
      },
      "normalTexture": {
        "index": 3
      },
      "occlusionTexture": {
        "index": 5
      },
      "name": "re_bar_end_L"
    },
    {
      "pbrMetallicRoughness": {
        "baseColorTexture": {
          "index": 7
        },
        "metallicFactor": 0.0,
        "roughnessFactor": 0.5,
        "metallicRoughnessTexture": {
          "index": 8
        }
      },
      "normalTexture": {
        "index": 6
      },
      "occlusionTexture": {
        "index": 8
      },
      "name": "re_bar_side"
    },
    {
      "pbrMetallicRoughness": {
        "baseColorTexture": {
          "index": 10
        },
        "metallicFactor": 0.0,
        "roughnessFactor": 0.5,
        "metallicRoughnessTexture": {
          "index": 11
        }
      },
      "normalTexture": {
        "index": 9
      },
      "occlusionTexture": {
        "index": 11
      },
      "name": "re_bar_center"
    },
    {
      "pbrMetallicRoughness": {
        "baseColorTexture": {
          "index": 13
        },
        "metallicFactor": 0.0,
        "roughnessFactor": 0.5,
        "metallicRoughnessTexture": {
          "index": 14
        }
      },
      "normalTexture": {
        "index": 12
      },
      "occlusionTexture": {
        "index": 14
      },
      "name": "re_ho_01"
    }
  ],
  "meshes": [
    {
      "primitives": [
        {
          "attributes": {
            "POSITION": 0,
            "NORMAL": 1,
            "TANGENT": 2,
            "TEXCOORD_0": 3
          },
          "indices": 4,
          "material": 0
        }
      ],
      "name": "re_ho_02"
    },
    {
      "primitives": [
        {
          "attributes": {
            "POSITION": 5,
            "NORMAL": 6,
            "TANGENT": 7,
            "TEXCOORD_0": 8
          },
          "indices": 9,
          "material": 1
        }
      ],
      "name": "re_bar_end_L"
    },
    {
      "primitives": [
        {
          "attributes": {
            "POSITION": 10,
            "NORMAL": 11,
            "TANGENT": 12,
            "TEXCOORD_0": 13
          },
          "indices": 14,
          "material": 2
        }
      ],
      "name": "re_bar_side_L"
    },
    {
      "primitives": [
        {
          "attributes": {
            "POSITION": 15,
            "NORMAL": 16,
            "TANGENT": 17,
            "TEXCOORD_0": 18
          },
          "indices": 19,
          "material": 1
        }
      ],
      "name": "re_bar_end_R"
    },
    {
      "primitives": [
        {
          "attributes": {
            "POSITION": 20,
            "NORMAL": 21,
            "TEXCOORD_0": 22
          },
          "indices": 23,
          "material": 3
        }
      ],
      "name": "re_bar_center"
    },
    {
      "primitives": [
        {
          "attributes": {
            "POSITION": 24,
            "NORMAL": 25,
            "TANGENT": 26,
            "TEXCOORD_0": 27
          },
          "indices": 28,
          "material": 2
        }
      ],
      "name": "re_bar_side_R"
    },
    {
      "primitives": [
        {
          "attributes": {
            "POSITION": 29,
            "NORMAL": 30,
            "TANGENT": 31,
            "TEXCOORD_0": 32
          },
          "indices": 33,
          "material": 4
        }
      ],
      "name": "re_ho_01 (2)"
    }
  ],
  "nodes": [
    {
      "mesh": 0,
      "rotation": [
        2.038385E-08,
        -0.360766679,
        -7.884807E-09,
        -0.93265605
      ],
      "translation": [
        3.157,
        0.0,
        -1.207
      ],
      "name": "re_ho_02"
    },
    {
      "mesh": 1,
      "rotation": [
        0.0,
        0.7071068,
        0.0,
        -0.7071068
      ],
      "scale": [
        1.00000024,
        1.0,
        1.00000024
      ],
      "translation": [
        6.876,
        1.1921E-07,
        0.3620999
      ],
      "name": "re_bar_end_L"
    },
    {
      "mesh": 2,
      "rotation": [
        2.18556941E-08,
        0.0,
        0.0,
        -1.0
      ],
      "translation": [
        6.43950033,
        0.0,
        -0.376000166
      ],
      "name": "re_bar_side_L"
    },
    {
      "mesh": 3,
      "rotation": [
        0.0,
        -0.7071068,
        0.0,
        -0.7071068
      ],
      "scale": [
        1.00000024,
        1.0,
        1.00000024
      ],
      "translation": [
        3.0031,
        -2.9803E-07,
        0.3620999
      ],
      "name": "re_bar_end_R"
    },
    {
      "mesh": 4,
      "rotation": [
        2.18556941E-08,
        8.742278E-08,
        1.91068547E-15,
        -1.0
      ],
      "translation": [
        5.43953037,
        -2.199E-07,
        -0.376000166
      ],
      "name": "re_bar_center"
    },
    {
      "mesh": 5,
      "rotation": [
        2.18556941E-08,
        0.0,
        0.0,
        -1.0
      ],
      "translation": [
        3.43960023,
        -5.075E-07,
        -0.376000166
      ],
      "name": "re_bar_side_R"
    },
    {
      "mesh": 0,
      "rotation": [
        1.954894E-08,
        0.447159648,
        9.772986E-09,
        -0.8944541
      ],
      "scale": [
        0.99999994,
        1.0,
        0.99999994
      ],
      "translation": [
        3.763,
        0.0,
        -1.20700014
      ],
      "name": "re_ho_02 (1)"
    },
    {
      "mesh": 6,
      "rotation": [
        0.0,
        1.0,
        0.0,
        0.0
      ],
      "translation": [
        5.902,
        0.0,
        -1.28500009
      ],
      "name": "re_ho_01 (2)"
    },
    {
      "mesh": 6,
      "rotation": [
        0.0,
        1.0,
        0.0,
        0.0
      ],
      "translation": [
        6.476,
        0.0,
        -1.28500009
      ],
      "name": "re_ho_01 (1)"
    },
    {
      "mesh": 4,
      "rotation": [
        2.18556941E-08,
        8.742278E-08,
        1.91068547E-15,
        -1.0
      ],
      "translation": [
        4.439558,
        -4.2128E-07,
        -0.376000166
      ],
      "name": "re_bar_center (1)"
    },
    {
      "mesh": 2,
      "rotation": [
        0.0,
        -0.7071068,
        0.0,
        -0.7071068
      ],
      "scale": [
        1.00000024,
        1.0,
        1.00000024
      ],
      "translation": [
        3.28130031,
        -4.1724E-07,
        -0.217700243
      ],
      "name": "re_bar_side_L (1)"
    },
    {
      "mesh": 5,
      "rotation": [
        0.0,
        0.7071068,
        0.0,
        -0.7071068
      ],
      "scale": [
        1.00000024,
        1.0,
        1.00000024
      ],
      "translation": [
        6.59780025,
        -9.0263E-08,
        -0.217700243
      ],
      "name": "re_bar_side_R (1)"
    },
    {
      "mesh": 0,
      "rotation": [
        1.954894E-08,
        0.447159648,
        9.772986E-09,
        -0.8944541
      ],
      "scale": [
        0.99999994,
        1.0,
        0.99999994
      ],
      "translation": [
        4.4819994,
        0.0,
        -1.202
      ],
      "name": "re_ho_02 (2)"
    }
  ],
  "samplers": [
    {
      "minFilter": 9729
    }
  ],
  "scene": 0,
  "scenes": [
    {
      "nodes": [
        0,
        1,
        2,
        3,
        4,
        5,
        6,
        7,
        8,
        9,
        10,
        11,
        12
      ],
      "name": "Unity2Skfb"
    }
  ],
  "textures": [
    {
      "sampler": 0,
      "source": 0,
      "name": "re_ho_02_N"
    },
    {
      "sampler": 0,
      "source": 1,
      "name": "re_ho_02_alb"
    },
    {
      "sampler": 0,
      "source": 2,
      "name": "re_ho_02_met"
    },
    {
      "sampler": 0,
      "source": 3,
      "name": "re_bar_end_N"
    },
    {
      "sampler": 0,
      "source": 4,
      "name": "re_bar_end_alb"
    },
    {
      "sampler": 0,
      "source": 5,
      "name": "re_bar_end_met"
    },
    {
      "sampler": 0,
      "source": 6,
      "name": "re_bar_side_N"
    },
    {
      "sampler": 0,
      "source": 7,
      "name": "re_bar_side_alb"
    },
    {
      "sampler": 0,
      "source": 8,
      "name": "re_bar_side_met"
    },
    {
      "sampler": 0,
      "source": 9,
      "name": "re_bar_center_N"
    },
    {
      "sampler": 0,
      "source": 10,
      "name": "re_bar_center_alb"
    },
    {
      "sampler": 0,
      "source": 11,
      "name": "re_bar_center_met"
    },
    {
      "sampler": 0,
      "source": 12,
      "name": "re_ho_01_N"
    },
    {
      "sampler": 0,
      "source": 13,
      "name": "re_ho_01_alb"
    },
    {
      "sampler": 0,
      "source": 14,
      "name": "re_ho_01_met"
    }
  ]
}